# xmcd CD database file
# Copyright (C) 1993-1998 Ti Kan
#
# Track frame offsets:
#	150
#	13527
#	28300
#	41332
#	54512
#	68280
#	81587
#	96642
#	108302
#	122185
#	139425
#	153682
#	168090
#	178542
#	193007
#
# Disc length: 2830 seconds
#
# Revision: 0
# Processed by: cddbd v1.4b41PL1 Copyright (c) Steve Scherf et al.
# Submitted via: CDmax 1.5
#
DISCID=cf0b0c0f
DTITLE=John Hammond - Long As I Have You
DYEAR=1900
DGENRE=
TTITLE0=Don't Start Me Talkin'
TTITLE1=As Long As I Have You
TTITLE2=I Feel So Sorry
TTITLE3=Stranded
TTITLE4=Lookin' For Trouble
TTITLE5=I Got Lucky
TTITLE6=Sad To Be Alone
TTITLE7=Goin' Away Baby
TTITLE8=So Many Roads, So Many Trains
TTITLE9=I'm Gonna Find My Baby
TTITLE10=Crying At Daylight
TTITLE11=Everything's Gonna Be Alright
TTITLE12=Untrue Blues
TTITLE13=Tell Me Mama
TTITLE14=Homeless Blues
EXTD=
EXTT0=
EXTT1=
EXTT2=
EXTT3=
EXTT4=
EXTT5=
EXTT6=
EXTT7=
EXTT8=
EXTT9=
EXTT10=
EXTT11=
EXTT12=
EXTT13=
EXTT14=
PLAYORDER=
